<svg xmlns="http://www.w3.org/2000/svg" version="1.1" xmlns:xlink="http://www.w3.org/1999/xlink" xmlns:svgjs="http://svgjs.dev/svgjs" width="1500" height="1500" viewBox="0 0 1500 1500"><rect width="1500" height="1500" fill="#000000"></rect><g transform="matrix(0.6666666666666666,0,0,0.6666666666666666,249.39393939393938,618.9538223686322)"><svg viewBox="0 0 396 104" data-background-color="#97d5ee" preserveAspectRatio="xMidYMid meet" height="393" width="1500" xmlns="http://www.w3.org/2000/svg" xmlns:xlink="http://www.w3.org/1999/xlink"><g id="tight-bounds" transform="matrix(1,0,0,1,0.2400000000000091,0.018330052145955733)"><svg viewBox="0 0 395.52 103.9633398957081" height="103.9633398957081" width="395.52"><g><svg viewBox="0 0 577.9912509871764 151.9263270710087" height="103.9633398957081" width="395.52"><g transform="matrix(1,0,0,1,0,20.99705388608008)"><svg viewBox="0 0 395.52 109.93221929884854" height="109.93221929884854" width="395.52"><g id="textblocktransform"><svg viewBox="0 0 395.52 109.93221929884854" height="109.93221929884854" width="395.52" id="textblock"><g><svg viewBox="0 0 395.52 75.0230745179781" height="75.0230745179781" width="395.52"><g transform="matrix(1,0,0,1,0,0)"><svg width="395.52" viewBox="1.25 -40 291.93 54.6" height="75.0230745179781" data-palette-color="#db3e25"><g class="wordmark-text-0" data-fill-palette-color="primary" id="text-0"><path d="M24.85 0L10.15 0 10.15-1.05 14.75-1.8 14.75-38.75 6.5-38.75 2.7-28.85 1.25-28.85 1.25-40 33.8-40 33.8-28.85 32.3-28.85 28.55-38.75 20.25-38.75 20.25-1.8 24.85-1.05 24.85 0ZM50.35 0.5Q46.65 0.5 43.65-1.18 40.65-2.85 38.9-5.9 37.15-8.95 37.15-12.95L37.15-12.95Q37.15-16.95 38.87-19.98 40.6-23 43.52-24.68 46.45-26.35 50.05-26.35L50.05-26.35Q53.2-26.35 55.7-24.95 58.2-23.55 59.6-21.08 61-18.6 61.05-15.4L61.05-15.4 42.65-15.4 42.65-10.45Q42.65-6.05 44.62-3.33 46.6-0.6 50.35-0.6L50.35-0.6Q53.8-0.6 56.45-2.55 59.1-4.5 59.7-7.6L59.7-7.6 60.85-7.6Q60.15-3.9 57.3-1.7 54.45 0.5 50.35 0.5L50.35 0.5ZM42.7-16.65L55.55-16.65Q55.55-21 54.2-23.13 52.85-25.25 50-25.25L50-25.25Q46.65-25.25 44.8-22.9 42.95-20.55 42.7-16.65L42.7-16.65ZM78.15 0.5Q74.55 0.5 71.59-1.18 68.64-2.85 66.92-5.93 65.2-9 65.2-12.95L65.2-12.95Q65.2-17.1 67.02-20.15 68.84-23.2 71.8-24.78 74.75-26.35 78.15-26.35L78.15-26.35Q81-26.35 83.34-25.38 85.7-24.4 87.07-22.65 88.45-20.9 88.45-18.7L88.45-18.7Q88.45-17.05 87.59-16.18 86.75-15.3 85.34-15.3L85.34-15.3Q84-15.3 83.09-16.2 82.2-17.1 82.2-18.45L82.2-18.45Q82.95-18.95 83.25-19.55 83.55-20.15 83.55-21.05L83.55-21.05Q83.55-22.9 82.07-24.08 80.59-25.25 78.15-25.25L78.15-25.25Q74.55-25.25 72.62-22.68 70.7-20.1 70.7-15.45L70.7-15.45 70.7-10.45Q70.7-6 72.57-3.3 74.45-0.6 78.15-0.6L78.15-0.6Q81.55-0.6 84.07-2.53 86.59-4.45 87.2-7.6L87.2-7.6 88.34-7.6Q87.65-3.9 84.87-1.7 82.09 0.5 78.15 0.5L78.15 0.5ZM91.44 0L91.44-1 94.94-1.5 94.94-38.5 91.44-39 91.44-40 99.94-40 99.94-20.5Q101.79-23.2 104.29-24.78 106.79-26.35 109.69-26.35L109.69-26.35Q113.29-26.35 115.37-24.55 117.44-22.75 117.44-19.2L117.44-19.2 117.44-1.5 120.94-1 120.94 0 109.44 0 109.44-1 112.44-1.5 112.44-19.1Q112.44-21.7 111.39-23.13 110.34-24.55 108.14-24.55L108.14-24.55Q105.84-24.55 103.72-22.88 101.59-21.2 99.94-18.75L99.94-18.75 99.94-1.5 102.94-1 102.94 0 91.44 0Z" fill="#ffffff" data-fill-palette-color="primary"></path><path d="M134.89 0L134.89-1.05 139.49-1.8 139.49-38.2 134.89-38.9 134.89-40 150.14-40Q155.54-40 158.74-39 161.94-38 163.39-35.98 164.84-33.95 164.84-30.65L164.84-30.65Q164.84-23.45 155.74-21.45L155.74-21.45 155.74-21.2Q161.29-20.45 164.36-17.9 167.44-15.35 167.44-10.8L167.44-10.8Q167.44-5.3 163.41-2.65 159.39 0 152.54 0L152.54 0 134.89 0ZM144.99-21.6L150.54-21.6Q154.54-21.6 156.69-23.85 158.84-26.1 158.84-30.25L158.84-30.25 158.84-30.55Q158.84-38.75 150.14-38.75L150.14-38.75 144.99-38.75 144.99-21.6ZM144.99-1.2L152.54-1.2Q156.79-1.2 159.14-3.68 161.49-6.15 161.49-10.75L161.49-10.75 161.49-11.3Q161.49-15.85 159.16-18.1 156.84-20.35 152.54-20.35L152.54-20.35 144.99-20.35 144.99-1.2ZM182.24 0.5Q178.64 0.5 176.56-1.3 174.49-3.1 174.49-6.65L174.49-6.65 174.49-24.4 170.99-24.9 170.99-25.9 179.49-25.9 179.49-6.75Q179.49-4.2 180.54-2.75 181.59-1.3 183.79-1.3L183.79-1.3Q186.09-1.3 188.21-2.83 190.34-4.35 191.99-6.6L191.99-6.6 191.99-24.4 188.49-24.9 188.49-25.9 196.99-25.9 196.99-1.5 200.49-1 200.49 0 191.99 0 191.99-4.8Q190.19-2.3 187.66-0.9 185.14 0.5 182.24 0.5L182.24 0.5ZM215.83 0.5Q212.28 0.5 209.58-1.18 206.88-2.85 205.38-5.88 203.88-8.9 203.88-12.95L203.88-12.95Q203.88-17 205.38-20.03 206.88-23.05 209.58-24.7 212.28-26.35 215.83-26.35L215.83-26.35Q218.73-26.35 220.88-24.83 223.03-23.3 224.28-20.65L224.28-20.65 224.28-38.5 220.78-39 220.78-40 229.28-40 229.28-1.5 232.78-1 232.78 0 224.28 0 224.28-5.2Q223.03-2.55 220.88-1.03 218.73 0.5 215.83 0.5L215.83 0.5ZM216.33-0.75Q218.53-0.75 220.31-2.02 222.08-3.3 223.16-5.43 224.23-7.55 224.28-10.05L224.28-10.05 224.28-15.8Q224.23-18.3 223.16-20.43 222.08-22.55 220.31-23.83 218.53-25.1 216.33-25.1L216.33-25.1Q209.38-25.1 209.38-15.45L209.38-15.45 209.38-10.45Q209.38-0.75 216.33-0.75L216.33-0.75ZM247.93 0.5Q244.38 0.5 241.68-1.18 238.98-2.85 237.48-5.88 235.98-8.9 235.98-12.95L235.98-12.95Q235.98-17 237.48-20.03 238.98-23.05 241.68-24.7 244.38-26.35 247.93-26.35L247.93-26.35Q250.83-26.35 252.98-24.83 255.13-23.3 256.38-20.65L256.38-20.65 256.38-38.5 252.88-39 252.88-40 261.38-40 261.38-1.5 264.88-1 264.88 0 256.38 0 256.38-5.2Q255.13-2.55 252.98-1.03 250.83 0.5 247.93 0.5L247.93 0.5ZM248.43-0.75Q250.63-0.75 252.41-2.02 254.18-3.3 255.26-5.43 256.33-7.55 256.38-10.05L256.38-10.05 256.38-15.8Q256.33-18.3 255.26-20.43 254.18-22.55 252.41-23.83 250.63-25.1 248.43-25.1L248.43-25.1Q241.48-25.1 241.48-15.45L241.48-15.45 241.48-10.45Q241.48-0.75 248.43-0.75L248.43-0.75ZM271.83 14.6Q269.23 14.6 267.63 13.3 266.03 12 266.03 9.8L266.03 9.8Q266.03 8.3 266.9 7.38 267.78 6.45 269.08 6.45L269.08 6.45Q270.03 6.45 270.78 6.85 271.53 7.25 271.98 8.05L271.98 8.05Q271.23 9.1 271.23 10.25L271.23 10.25Q271.23 11.25 271.88 11.9 272.53 12.55 273.53 12.55L273.53 12.55Q274.73 12.55 275.6 11.75 276.48 10.95 277.18 8.95L277.18 8.95 280.18 0.35 268.58-24.35 265.23-24.85 265.23-25.85 277.68-25.85 277.68-24.85 274.18-24.25 282.53-6.4 288.48-23.6 284.18-24.85 284.18-25.85 293.18-25.85 293.18-24.85 289.78-23.6 278.58 8.95Q277.53 11.9 276.05 13.25 274.58 14.6 271.83 14.6L271.83 14.6Z" fill="#ffffff" data-fill-palette-color="primary"></path></g></svg></g></svg></g><g transform="matrix(1,0,0,1,163.310208,92.73422185788431)"><svg viewBox="0 0 232.209792 17.197997440964237" height="17.197997440964237" width="232.209792"><g transform="matrix(1,0,0,1,0,0)"><svg width="232.209792" viewBox="2.35 -35.5 630.49 46.7" height="17.197997440964237" data-palette-color="#db3e25"><path d="M25.35-4.25L28.75-2.75 28.75 0 22.8 0 21.5-3.6Q19.45-1.5 17.07-0.5 14.7 0.5 11.75 0.5L11.75 0.5Q6.95 0.5 4.65-1.35 2.35-3.2 2.35-7.35L2.35-7.35Q2.35-11.75 5.1-13.73 7.85-15.7 13.95-15.7L13.95-15.7Q16.35-15.7 18.18-15.28 20-14.85 21.15-14.25L21.15-14.25 21.15-16.2Q21.15-18.5 20.58-19.78 20-21.05 18.53-21.63 17.05-22.2 14.25-22.2L14.25-22.2Q9.2-22.2 3.75-21L3.75-21 3.75-24.6Q9.3-25.8 14.35-25.8L14.35-25.8Q19.05-25.8 21.43-24.85 23.8-23.9 24.58-22.1 25.35-20.3 25.35-17.1L25.35-17.1 25.35-4.25ZM6.75-7.65Q6.75-5.2 7.98-4.15 9.2-3.1 12.45-3.1L12.45-3.1Q14.85-3.1 17.07-3.98 19.3-4.85 21.15-6.4L21.15-6.4 21.15-11.4Q18.35-12.2 14.4-12.2L14.4-12.2Q10.05-12.2 8.4-11.1 6.75-10 6.75-7.65L6.75-7.65ZM39.15-35.5L39.15-4.25 42.55-2.75 42.55 0 31.55 0 31.55-2.75 34.95-4.25 34.95-31.25 31.55-32.65 31.55-35.5 39.15-35.5ZM54.2-35.5L54.2-4.25 57.59-2.75 57.59 0 46.59 0 46.59-2.75 50-4.25 50-31.25 46.59-32.65 46.59-35.5 54.2-35.5ZM87.49 0.4Q82.69 0.4 80.62-1.55 78.54-3.5 78.54-8.15L78.54-8.15 78.54-21.6 74.64-21.6 74.64-24.4 78.54-25.1 80.04-32.35 82.74-32.35 82.74-25.1 91.29-25.05 91.29-21.55 82.74-21.6 82.74-8.15Q82.74-6.1 83.24-5.05 83.74-4 84.89-3.6 86.04-3.2 88.24-3.2L88.24-3.2Q89.94-3.2 91.79-3.55L91.79-3.55 91.79-0.05Q89.99 0.4 87.49 0.4L87.49 0.4ZM107.89-25.8Q112.99-25.8 116.16-22.63 119.34-19.45 119.34-13.2L119.34-13.2 119.34-11.2 99.74-11.2Q99.99-7.85 100.96-6.08 101.94-4.3 103.81-3.6 105.69-2.9 108.99-2.9L108.99-2.9Q113.74-2.9 118.39-4.05L118.39-4.05 118.39-0.45Q116.44 0.05 113.84 0.38 111.24 0.7 108.89 0.7L108.89 0.7Q102.24 0.7 98.79-2.3 95.34-5.3 95.34-12.55L95.34-12.55Q95.34-19.3 98.74-22.55 102.14-25.8 107.89-25.8L107.89-25.8ZM107.64-22.2Q103.74-22.2 101.94-20.45 100.14-18.7 99.79-14.75L99.79-14.75 114.89-14.75Q114.59-18.45 112.84-20.33 111.09-22.2 107.64-22.2L107.64-22.2ZM136.29-25.8Q140.44-25.8 142.14-24.75 143.84-23.7 143.84-21.4L143.84-21.4Q143.84-17.35 139.04-17.35L139.04-17.35 136.84-22.35Q132.89-22.35 130.89-21.45 128.89-20.55 128.11-18.53 127.34-16.5 127.34-12.65L127.34-12.65Q127.34-8.7 128.21-6.6 129.09-4.5 130.91-3.7 132.74-2.9 135.89-2.9L135.89-2.9Q138.04-2.9 139.79-3.18 141.54-3.45 143.44-4.15L143.44-4.15 143.44-0.55Q141.89 0.05 139.81 0.38 137.74 0.7 135.69 0.7L135.69 0.7Q129.49 0.7 126.21-2.27 122.94-5.25 122.94-12.5L122.94-12.5Q122.94-19.55 126.26-22.68 129.59-25.8 136.29-25.8L136.29-25.8ZM173.83-4.25L177.23-2.75 177.23 0 169.63 0 169.63-16.55Q169.63-19.5 168.21-20.83 166.78-22.15 164.03-22.15L164.03-22.15Q162.28-22.15 160.61-21.7 158.93-21.25 155.73-20.1L155.73-20.1 155.73-4.25 159.13-2.75 159.13 0 148.13 0 148.13-2.75 151.53-4.25 151.53-31.25 148.13-32.65 148.13-35.5 155.73-35.5 155.73-23.35Q158.28-24.65 160.61-25.23 162.93-25.8 165.38-25.8L165.38-25.8Q168.53-25.8 170.38-24.83 172.23-23.85 173.03-21.73 173.83-19.6 173.83-16L173.83-16 173.83-4.25ZM220.98-4.25L224.38-2.75 224.38 0 216.78 0 216.78-16.55Q216.78-19.5 215.35-20.83 213.93-22.15 211.18-22.15L211.18-22.15Q209.43-22.15 207.75-21.7 206.08-21.25 202.88-20.1L202.88-20.1 202.88-4.25 206.78-2.75 206.78 0 195.28 0 195.28-2.75 198.68-4.25 198.68-20.85 195.28-22.25 195.28-25.1 200.83-25.1 202.13-23.05Q204.93-24.5 207.43-25.15 209.93-25.8 212.53-25.8L212.53-25.8Q215.68-25.8 217.53-24.83 219.38-23.85 220.18-21.73 220.98-19.6 220.98-16L220.98-16 220.98-4.25ZM240.73-25.8Q245.83-25.8 249-22.63 252.18-19.45 252.18-13.2L252.18-13.2 252.18-11.2 232.58-11.2Q232.83-7.85 233.8-6.08 234.78-4.3 236.65-3.6 238.53-2.9 241.83-2.9L241.83-2.9Q246.58-2.9 251.23-4.05L251.23-4.05 251.23-0.45Q249.28 0.05 246.68 0.38 244.08 0.7 241.73 0.7L241.73 0.7Q235.08 0.7 231.63-2.3 228.18-5.3 228.18-12.55L228.18-12.55Q228.18-19.3 231.58-22.55 234.98-25.8 240.73-25.8L240.73-25.8ZM240.48-22.2Q236.58-22.2 234.78-20.45 232.98-18.7 232.63-14.75L232.63-14.75 247.73-14.75Q247.43-18.45 245.68-20.33 243.93-22.2 240.48-22.2L240.48-22.2ZM285.12-25.1L295.07-25.1 295.07-22.25 292.17-20.85 285.22 0 280.12 0 274.52-17.65 268.92 0 263.82 0 256.87-20.85 253.97-22.25 253.97-25.1 264.62-25.1 264.62-22.25 261.22-20.85 266.62-4.35 272.67-23.4 277.02-23.4 283.07-4.45 288.52-20.85 285.12-22.25 285.12-25.1ZM311.82-14.2Q315.27-13.55 316.97-12.75 318.67-11.95 319.27-10.68 319.87-9.4 319.87-7.1L319.87-7.1Q319.87-4.25 318.85-2.58 317.82-0.9 315.25-0.1 312.67 0.7 307.97 0.7L307.97 0.7Q305.57 0.7 303.32 0.48 301.07 0.25 297.87-0.3L297.87-0.3 297.87-7.5 300.87-7.5 302.32-3.25Q304.97-2.8 308.12-2.8L308.12-2.8Q311.22-2.8 312.77-3.13 314.32-3.45 314.9-4.23 315.47-5 315.47-6.5L315.47-6.5Q315.47-7.85 314.92-8.53 314.37-9.2 313.3-9.5 312.22-9.8 309.57-10.2L309.57-10.2 306.17-10.8Q302.62-11.45 300.82-12.25 299.02-13.05 298.3-14.43 297.57-15.8 297.57-18.3L297.57-18.3Q297.57-21.05 298.55-22.65 299.52-24.25 301.92-25.03 304.32-25.8 308.67-25.8L308.67-25.8Q313.02-25.8 318.97-24.8L318.97-24.8 318.97-17.85 316.07-17.85 314.72-21.75Q311.42-22.3 308.47-22.3L308.47-22.3Q305.87-22.3 304.47-21.95 303.07-21.6 302.52-20.85 301.97-20.1 301.97-18.7L301.97-18.7Q301.97-17.3 302.57-16.63 303.17-15.95 304.52-15.58 305.87-15.2 309.22-14.65L309.22-14.65Q310.47-14.5 311.82-14.2L311.82-14.2ZM361.22-4.25L364.62-2.75 364.62 0 358.67 0 357.37-3.6Q355.32-1.5 352.94-0.5 350.57 0.5 347.62 0.5L347.62 0.5Q342.82 0.5 340.52-1.35 338.22-3.2 338.22-7.35L338.22-7.35Q338.22-11.75 340.97-13.73 343.72-15.7 349.82-15.7L349.82-15.7Q352.22-15.7 354.04-15.28 355.87-14.85 357.02-14.25L357.02-14.25 357.02-16.2Q357.02-18.5 356.44-19.78 355.87-21.05 354.39-21.63 352.92-22.2 350.12-22.2L350.12-22.2Q345.07-22.2 339.62-21L339.62-21 339.62-24.6Q345.17-25.8 350.22-25.8L350.22-25.8Q354.92-25.8 357.29-24.85 359.67-23.9 360.44-22.1 361.22-20.3 361.22-17.1L361.22-17.1 361.22-4.25ZM342.62-7.65Q342.62-5.2 343.84-4.15 345.07-3.1 348.32-3.1L348.32-3.1Q350.72-3.1 352.94-3.98 355.17-4.85 357.02-6.4L357.02-6.4 357.02-11.4Q354.22-12.2 350.27-12.2L350.27-12.2Q345.92-12.2 344.27-11.1 342.62-10 342.62-7.65L342.62-7.65ZM380.51 0.4Q375.71 0.4 373.64-1.55 371.56-3.5 371.56-8.15L371.56-8.15 371.56-21.6 367.66-21.6 367.66-24.4 371.56-25.1 373.06-32.35 375.76-32.35 375.76-25.1 384.31-25.05 384.31-21.55 375.76-21.6 375.76-8.15Q375.76-6.1 376.26-5.05 376.76-4 377.91-3.6 379.06-3.2 381.26-3.2L381.26-3.2Q382.96-3.2 384.81-3.55L384.81-3.55 384.81-0.05Q383.01 0.4 380.51 0.4L380.51 0.4ZM415.56-25.8Q421.31-25.8 424.78-22.63 428.26-19.45 428.26-12.55L428.26-12.55Q428.26-5.65 424.78-2.48 421.31 0.7 415.56 0.7L415.56 0.7Q409.81 0.7 406.33-2.48 402.86-5.65 402.86-12.55L402.86-12.55Q402.86-19.45 406.33-22.63 409.81-25.8 415.56-25.8L415.56-25.8ZM415.56-22.2Q412.56-22.2 410.78-21.35 409.01-20.5 408.13-18.4 407.26-16.3 407.26-12.55L407.26-12.55Q407.26-8.8 408.13-6.7 409.01-4.6 410.78-3.75 412.56-2.9 415.56-2.9L415.56-2.9Q418.56-2.9 420.33-3.75 422.11-4.6 422.98-6.7 423.86-8.8 423.86-12.55L423.86-12.55Q423.86-16.3 422.98-18.4 422.11-20.5 420.33-21.35 418.56-22.2 415.56-22.2L415.56-22.2ZM458.31-4.25L461.71-2.75 461.71 0 454.11 0 454.11-16.55Q454.11-19.5 452.68-20.83 451.26-22.15 448.51-22.15L448.51-22.15Q446.76-22.15 445.08-21.7 443.41-21.25 440.21-20.1L440.21-20.1 440.21-4.25 444.11-2.75 444.11 0 432.61 0 432.61-2.75 436.01-4.25 436.01-20.85 432.61-22.25 432.61-25.1 438.16-25.1 439.46-23.05Q442.26-24.5 444.76-25.15 447.26-25.8 449.86-25.8L449.86-25.8Q453.01-25.8 454.86-24.83 456.71-23.85 457.51-21.73 458.31-19.6 458.31-16L458.31-16 458.31-4.25ZM478.05-25.8Q483.15-25.8 486.33-22.63 489.5-19.45 489.5-13.2L489.5-13.2 489.5-11.2 469.9-11.2Q470.15-7.85 471.13-6.08 472.1-4.3 473.98-3.6 475.85-2.9 479.15-2.9L479.15-2.9Q483.9-2.9 488.55-4.05L488.55-4.05 488.55-0.45Q486.6 0.05 484 0.38 481.4 0.7 479.05 0.7L479.05 0.7Q472.4 0.7 468.95-2.3 465.5-5.3 465.5-12.55L465.5-12.55Q465.5-19.3 468.9-22.55 472.3-25.8 478.05-25.8L478.05-25.8ZM477.8-22.2Q473.9-22.2 472.1-20.45 470.3-18.7 469.95-14.75L469.95-14.75 485.05-14.75Q484.75-18.45 483-20.33 481.25-22.2 477.8-22.2L477.8-22.2ZM523.6-25.8Q528.6-25.8 531.3-22.65 534-19.5 534-12.45L534-12.45Q534-7.5 532.9-4.67 531.8-1.85 529.62-0.68 527.45 0.5 524.05 0.5L524.05 0.5Q521.1 0.5 518.77-0.43 516.45-1.35 514.45-3.25L514.45-3.25 514.45 6.95 518.35 8.45 518.35 11.2 506.85 11.2 506.85 8.45 510.25 6.95 510.25-20.85 506.85-22.25 506.85-25.1 512.4-25.1 513.95-22.7Q516.6-24.35 518.9-25.08 521.2-25.8 523.6-25.8L523.6-25.8ZM523.2-3.15Q525.45-3.15 526.85-3.93 528.25-4.7 528.92-6.65 529.6-8.6 529.6-12.05L529.6-12.05Q529.6-17.2 527.97-19.68 526.35-22.15 522.6-22.15L522.6-22.15Q520.85-22.15 519.22-21.7 517.6-21.25 514.45-20.1L514.45-20.1 514.45-6.4Q518.55-3.15 523.2-3.15L523.2-3.15ZM546.2-35.5L546.2-4.25 549.6-2.75 549.6 0 538.6 0 538.6-2.75 542-4.25 542-31.25 538.6-32.65 538.6-35.5 546.2-35.5ZM576.69-4.25L580.09-2.75 580.09 0 574.14 0 572.84-3.6Q570.79-1.5 568.42-0.5 566.04 0.5 563.09 0.5L563.09 0.5Q558.29 0.5 555.99-1.35 553.69-3.2 553.69-7.35L553.69-7.35Q553.69-11.75 556.44-13.73 559.19-15.7 565.29-15.7L565.29-15.7Q567.69-15.7 569.52-15.28 571.34-14.85 572.49-14.25L572.49-14.25 572.49-16.2Q572.49-18.5 571.92-19.78 571.34-21.05 569.87-21.63 568.39-22.2 565.59-22.2L565.59-22.2Q560.54-22.2 555.09-21L555.09-21 555.09-24.6Q560.64-25.8 565.69-25.8L565.69-25.8Q570.39-25.8 572.77-24.85 575.14-23.9 575.92-22.1 576.69-20.3 576.69-17.1L576.69-17.1 576.69-4.25ZM558.09-7.65Q558.09-5.2 559.32-4.15 560.54-3.1 563.79-3.1L563.79-3.1Q566.19-3.1 568.42-3.98 570.64-4.85 572.49-6.4L572.49-6.4 572.49-11.4Q569.69-12.2 565.74-12.2L565.74-12.2Q561.39-12.2 559.74-11.1 558.09-10 558.09-7.65L558.09-7.65ZM597.24-25.8Q601.39-25.8 603.09-24.75 604.79-23.7 604.79-21.4L604.79-21.4Q604.79-17.35 599.99-17.35L599.99-17.35 597.79-22.35Q593.84-22.35 591.84-21.45 589.84-20.55 589.06-18.53 588.29-16.5 588.29-12.65L588.29-12.65Q588.29-8.7 589.16-6.6 590.04-4.5 591.86-3.7 593.69-2.9 596.84-2.9L596.84-2.9Q598.99-2.9 600.74-3.18 602.49-3.45 604.39-4.15L604.39-4.15 604.39-0.55Q602.84 0.05 600.76 0.38 598.69 0.7 596.64 0.7L596.64 0.7Q590.44 0.7 587.16-2.27 583.89-5.25 583.89-12.5L583.89-12.5Q583.89-19.55 587.21-22.68 590.54-25.8 597.24-25.8L597.24-25.8ZM621.39-25.8Q626.49-25.8 629.66-22.63 632.84-19.45 632.84-13.2L632.84-13.2 632.84-11.2 613.24-11.2Q613.49-7.85 614.46-6.08 615.44-4.3 617.31-3.6 619.19-2.9 622.49-2.9L622.49-2.9Q627.24-2.9 631.89-4.05L631.89-4.05 631.89-0.45Q629.94 0.05 627.34 0.38 624.74 0.7 622.39 0.7L622.39 0.7Q615.74 0.7 612.29-2.3 608.84-5.3 608.84-12.55L608.84-12.55Q608.84-19.3 612.24-22.55 615.64-25.8 621.39-25.8L621.39-25.8ZM621.14-22.2Q617.24-22.2 615.44-20.45 613.64-18.7 613.29-14.75L613.29-14.75 628.39-14.75Q628.09-18.45 626.34-20.33 624.59-22.2 621.14-22.2L621.14-22.2Z" opacity="1" transform="matrix(1,0,0,1,0,0)" fill="#ffffff" class="slogan-text-1" data-fill-palette-color="secondary" id="text-1"></path></svg></g></svg></g></svg></g></svg></g><g transform="matrix(1,0,0,1,413.23114733990616,0)"><svg viewBox="0 0 164.76010364727023 151.9263270710087" height="151.9263270710087" width="164.76010364727023"><g><svg xmlns="http://www.w3.org/2000/svg" xmlns:xlink="http://www.w3.org/1999/xlink" version="1.1" x="0" y="0" viewBox="50 66 412.1 380" style="enable-background:new 0 0 512 512;" xml:space="preserve" height="151.9263270710087" width="164.76010364727023" class="icon-icon-0" data-fill-palette-color="accent" id="icon-0"><g fill="#db3e25" data-fill-palette-color="accent"><path d="M50 326.9C50 339.7 60.7 350 73.6 350H438.5C451.3 350 462.1 339.7 462.1 326.9V306H50z" fill="#ffffff" data-fill-palette-color="accent"></path><path d="M263.2 179.2C263.2 174.7 259.5 171 255 171S246.8 174.7 246.8 179.2 250.5 187.4 255 187.4C259.6 187.4 263.2 183.7 263.2 179.2" fill="#ffffff" data-fill-palette-color="accent"></path><path d="M255.1 116.1C250.6 116.1 246.9 119.8 246.9 124.3S250.6 132.5 255.1 132.5 263.3 128.8 263.3 124.3C263.2 119.8 259.6 116.1 255.1 116.1" fill="#ffffff" data-fill-palette-color="accent"></path><path d="M255.1 227.7C250.6 227.7 246.9 231.4 246.9 235.9S250.6 244.1 255.1 244.1 263.3 240.4 263.3 235.9C263.2 231.4 259.6 227.7 255.1 227.7" fill="#ffffff" data-fill-palette-color="accent"></path><path d="M200.2 171C195.7 171 192 174.7 192 179.2S195.7 187.4 200.2 187.4 208.4 183.7 208.4 179.2C208.4 174.6 204.7 171 200.2 171" fill="#ffffff" data-fill-palette-color="accent"></path><path d="M200.2 132.5C204.7 132.5 208.4 128.8 208.4 124.3S204.7 116.1 200.2 116.1 192 119.8 192 124.3 195.7 132.5 200.2 132.5" fill="#ffffff" data-fill-palette-color="accent"></path><path d="M200.2 227.7C195.7 227.7 192 231.4 192 235.9S195.7 244.1 200.2 244.1 208.4 240.4 208.4 235.9 204.7 227.7 200.2 227.7" fill="#ffffff" data-fill-palette-color="accent"></path><path d="M438.4 66H73.6C60.7 66 50.2 76.4 50 89.2V294H462V89.2C461.8 76.4 451.3 66 438.4 66M291.6 124.3C291.6 113.2 300.6 104.1 311.8 104.1S332 113.1 332 124.3 323 144.5 311.8 144.5 291.6 135.5 291.6 124.3M200.2 256.1C189 256.1 180 247.1 180 235.9S189 215.7 200.2 215.7 220.4 224.7 220.4 235.9 211.3 256.1 200.2 256.1M275.2 235.9C275.2 247.1 266.2 256.1 255.1 256.2 243.9 256.2 234.9 247.2 234.8 236.1 234.8 234.3 235 232.5 235.5 230.8L203.8 199C192.8 201 182.3 193.8 180.2 182.8 180 181.6 179.9 180.4 179.9 179.1 179.9 170.4 186 163 193 160.2V143.2C186 140.4 179.9 133 179.9 124.3 179.9 113.2 188.9 104.1 200.1 104.1S220.3 113.1 220.3 124.3C220.4 133.6 214.1 141.6 205.1 143.8V159.6C215.9 162.3 222.5 173.3 219.8 184.1 219 187.5 217.3 190.5 214.9 193L242.3 220.3C244.6 218.4 247.3 217 250.2 216.3V198.6C239.4 195.8 232.9 184.8 235.7 174S249.5 156.7 260.3 159.5 277.6 173.3 274.8 184.1C273.1 190.5 268.4 195.7 262.2 198V217C269.9 219.9 275.2 227.5 275.2 235.9M319 198.1V217C326 219.8 332.1 227.2 332.1 235.9 332.1 247 323.1 256.1 311.9 256.1 300.8 256.1 291.7 247.1 291.7 235.9 291.6 226.6 297.9 218.6 306.9 216.4V198.7C296.1 196 289.5 185 292.3 174.2 292.6 172.9 293.1 171.6 293.7 170.3L265.2 141.7C255.5 147.4 243.1 144.2 237.4 134.6 231.7 124.9 234.9 112.5 244.5 106.8 254.2 101.1 266.6 104.3 272.3 113.9 275.7 119.7 276.1 126.8 273.2 132.8L301.8 161.6C304.8 159.9 308.2 159 311.7 159 322.9 159 331.9 168 332 179.2 332.1 187.8 326 195.3 319 198.1" fill="#ffffff" data-fill-palette-color="accent"></path><path d="M311.8 132.5C316.3 132.5 320 128.8 320 124.3S316.3 116.1 311.8 116.1 303.6 119.8 303.6 124.3 307.3 132.5 311.8 132.5" fill="#ffffff" data-fill-palette-color="accent"></path><path d="M311.8 171C307.3 171 303.6 174.7 303.6 179.2S307.3 187.4 311.8 187.4 320 183.7 320 179.2C320 174.6 316.3 171 311.8 171" fill="#ffffff" data-fill-palette-color="accent"></path><path d="M311.8 227.7C307.3 227.7 303.6 231.4 303.6 235.9S307.3 244.1 311.8 244.1 320 240.4 320 235.9 316.3 227.7 311.8 227.7" fill="#ffffff" data-fill-palette-color="accent"></path><path d="M351.2 434H318V356H194V434H166.1C162.8 434 160.1 436.7 160.1 440S162.8 446 166.1 446H351.1C354.4 446 357.1 443.3 357.1 440S354.5 434 351.2 434" fill="#ffffff" data-fill-palette-color="accent"></path></g></svg></g></svg></g></svg></g><defs></defs></svg><rect width="395.52" height="103.9633398957081" fill="none" stroke="none" visibility="hidden"></rect></g></svg></g></svg>